<svg width="589" height="41" viewBox="0 0 589 41" fill="none" xmlns="http://www.w3.org/2000/svg">
<circle cx="15" cy="9" r="5.5" fill="#3E6787" stroke="#3E6787"/>
<circle cx="15" cy="9" r="8.5" stroke="#3E6787"/>
<circle cx="192" cy="9" r="5.5" fill="#D8D8D8" stroke="#D8D8D8"/>
<circle cx="192" cy="9" r="8.5" stroke="#D8D8D8"/>
<line x1="26" y1="9" x2="181" y2="9" stroke="#D8D8D8" stroke-width="2"/>
<path d="M25.5 5.5H181.5" stroke="#D8D8D8"/>
<path d="M25.5 12.5H181.5" stroke="#D8D8D8"/>
<circle cx="369" cy="9" r="5.5" fill="#D8D8D8" stroke="#D8D8D8"/>
<circle cx="369" cy="9" r="8.5" stroke="#D8D8D8"/>
<line x1="203" y1="9" x2="358" y2="9" stroke="#D8D8D8" stroke-width="2"/>
<path d="M202.5 5.5H358.5" stroke="#D8D8D8"/>
<path d="M202.5 12.5H358.5" stroke="#D8D8D8"/>
<circle cx="546" cy="9" r="5.5" fill="#D8D8D8" stroke="#D8D8D8"/>
<circle cx="546" cy="9" r="8.5" stroke="#D8D8D8"/>
<path d="M380 9L535 9" stroke="#D8D8D8" stroke-width="2"/>
<path d="M379.5 5.5H535.5" stroke="#D8D8D8"/>
<path d="M379.5 12.5H535.5" stroke="#D8D8D8"/>
<path d="M0.789062 39H2.23828V36.2969H3.76953C5.61719 36.2969 6.60938 35.1875 6.60938 33.6484C6.60938 32.1211 5.62891 31 3.78906 31H0.789062V39ZM2.23828 35.1055V32.2109H3.56641C4.65234 32.2109 5.13281 32.7969 5.13281 33.6484C5.13281 34.5 4.65234 35.1055 3.57422 35.1055H2.23828ZM7.90116 39H12.8738V37.7852H9.35038V31H7.90116V39ZM15.4928 39L16.1529 37.0273H19.1607L19.8248 39H21.3717L18.5514 31H16.7623L13.9459 39H15.4928ZM16.5435 35.8633L17.6256 32.6406H17.6881L18.7701 35.8633H16.5435ZM29.0326 31H27.5912V36.4531H27.5209L23.7553 31H22.4584V39H23.9076V33.5508H23.974L27.7435 39H29.0326V31Z" fill="#3E6787"/>
<path d="M342.789 39H344.238V36.2969H345.77C347.617 36.2969 348.609 35.1875 348.609 33.6484C348.609 32.1211 347.629 31 345.789 31H342.789V39ZM344.238 35.1055V32.2109H345.566C346.652 32.2109 347.133 32.7969 347.133 33.6484C347.133 34.5 346.652 35.1055 345.574 35.1055H344.238ZM350.037 39L350.697 37.0273H353.705L354.369 39H355.916L353.096 31H351.306L348.49 39H350.037ZM351.088 35.8633L352.17 32.6406H352.232L353.314 35.8633H351.088ZM355.639 31L358.549 36.0156V39H359.995V36.0156L362.905 31H361.268L359.311 34.5391H359.233L357.276 31H355.639ZM363.964 31V39H365.355V33.4922H365.429L367.64 38.9766H368.679L370.89 33.5039H370.964V39H372.355V31H370.581L368.206 36.7969H368.113L365.738 31H363.964ZM373.966 39H379.2V37.7852H375.415V35.6016H378.9V34.3867H375.415V32.2148H379.169V31H373.966V39ZM387.255 31H385.813V36.4531H385.743L381.978 31H380.681V39H382.13V33.5508H382.196L385.966 39H387.255V31ZM388.515 32.2148H390.988V39H392.426V32.2148H394.898V31H388.515V32.2148Z" fill="#D8D8D8"/>
<path d="M510.637 33.6992C510.391 31.9219 509.023 30.8906 507.25 30.8906C505.16 30.8906 503.586 32.4141 503.586 35C503.586 37.582 505.141 39.1094 507.25 39.1094C509.152 39.1094 510.414 37.8789 510.637 36.3516L509.176 36.3437C508.992 37.2812 508.227 37.8086 507.27 37.8086C505.973 37.8086 505.043 36.8359 505.043 35C505.043 33.1953 505.965 32.1914 507.273 32.1914C508.246 32.1914 509.008 32.7422 509.176 33.6992H510.637ZM519.145 35C519.145 32.4141 517.567 30.8906 515.47 30.8906C513.368 30.8906 511.794 32.4141 511.794 35C511.794 37.582 513.368 39.1094 515.47 39.1094C517.567 39.1094 519.145 37.5859 519.145 35ZM517.688 35C517.688 36.8203 516.774 37.8086 515.47 37.8086C514.169 37.8086 513.251 36.8203 513.251 35C513.251 33.1797 514.169 32.1914 515.47 32.1914C516.774 32.1914 517.688 33.1797 517.688 35ZM527.123 31H525.681V36.4531H525.611L521.845 31H520.548V39H521.998V33.5508H522.064L525.834 39H527.123V31ZM528.735 39H530.184V35.6016H533.508V34.3867H530.184V32.2148H533.86V31H528.735V39ZM536.662 31H535.213V39H536.662V31ZM538.265 39H539.714V36.0703H541.19L542.761 39H544.378L542.647 35.8281C543.589 35.4492 544.085 34.6445 544.085 33.5586C544.085 32.0312 543.101 31 541.265 31H538.265V39ZM539.714 34.8672V32.2109H541.042C542.124 32.2109 542.608 32.707 542.608 33.5586C542.608 34.4102 542.124 34.8672 541.05 34.8672H539.714ZM545.452 31V39H546.843V33.4922H546.917L549.128 38.9766H550.167L552.378 33.5039H552.452V39H553.843V31H552.069L549.694 36.7969H549.6L547.225 31H545.452ZM556.481 39L557.141 37.0273H560.149L560.813 39H562.36L559.54 31H557.751L554.934 39H556.481ZM557.532 35.8633L558.614 32.6406H558.676L559.758 35.8633H557.532ZM562.128 32.2148H564.601V39H566.038V32.2148H568.511V31H562.128V32.2148ZM571.224 31H569.775V39H571.224V31ZM579.975 35C579.975 32.4141 578.396 30.8906 576.299 30.8906C574.197 30.8906 572.623 32.4141 572.623 35C572.623 37.582 574.197 39.1094 576.299 39.1094C578.396 39.1094 579.975 37.5859 579.975 35ZM578.518 35C578.518 36.8203 577.603 37.8086 576.299 37.8086C574.998 37.8086 574.08 36.8203 574.08 35C574.08 33.1797 574.998 32.1914 576.299 32.1914C577.603 32.1914 578.518 33.1797 578.518 35ZM587.952 31H586.51V36.4531H586.44L582.675 31H581.378V39H582.827V33.5508H582.893L586.663 39H587.952V31Z" fill="#D8D8D8"/>
<path d="M164.789 39H168.027C169.859 39 170.758 38.0664 170.758 36.8203C170.758 35.6094 169.898 34.8984 169.047 34.8555V34.7773C169.828 34.5937 170.445 34.0469 170.445 33.0742C170.445 31.8828 169.586 31 167.852 31H164.789V39ZM166.238 37.7891V35.4453H167.836C168.73 35.4453 169.285 35.9922 169.285 36.707C169.285 37.3437 168.848 37.7891 167.797 37.7891H166.238ZM166.238 34.4023V32.1953H167.703C168.555 32.1953 168.996 32.6445 168.996 33.2617C168.996 33.9648 168.426 34.4023 167.672 34.4023H166.238ZM177.098 31V36.2539C177.098 37.2422 176.305 37.8164 175.298 37.8164C174.294 37.8164 173.501 37.2422 173.501 36.2539V31H172.052V36.2891C172.052 38.1016 173.442 39.1211 175.298 39.1211C177.145 39.1211 178.544 38.1016 178.544 36.2891V31H177.098ZM184.5 33.1992H185.894C185.867 31.8477 184.714 30.8906 183.011 30.8906C181.332 30.8906 180.07 31.8359 180.074 33.25C180.074 34.3984 180.89 35.0586 182.207 35.3984L183.117 35.6328C183.98 35.8516 184.55 36.1211 184.554 36.7422C184.55 37.4258 183.902 37.8828 182.957 37.8828C182.05 37.8828 181.347 37.4766 181.289 36.6367H179.863C179.921 38.2266 181.105 39.1211 182.968 39.1211C184.886 39.1211 186 38.1641 186.004 36.7539C186 35.3672 184.855 34.7344 183.652 34.4492L182.902 34.2617C182.246 34.1055 181.535 33.8281 181.543 33.1602C181.546 32.5586 182.086 32.1172 182.992 32.1172C183.855 32.1172 184.425 32.5195 184.5 33.1992ZM188.778 31H187.328V39H188.778V31ZM196.954 31H195.513V36.4531H195.443L191.677 31H190.38V39H191.829V33.5508H191.896L195.665 39H196.954V31ZM198.566 39H203.801V37.7852H200.016V35.6016H203.5V34.3867H200.016V32.2148H203.769V31H198.566V39ZM209.629 33.1992H211.023C210.996 31.8477 209.844 30.8906 208.14 30.8906C206.461 30.8906 205.199 31.8359 205.203 33.25C205.203 34.3984 206.019 35.0586 207.336 35.3984L208.246 35.6328C209.109 35.8516 209.679 36.1211 209.683 36.7422C209.679 37.4258 209.031 37.8828 208.086 37.8828C207.179 37.8828 206.476 37.4766 206.418 36.6367H204.992C205.051 38.2266 206.234 39.1211 208.097 39.1211C210.015 39.1211 211.129 38.1641 211.133 36.7539C211.129 35.3672 209.984 34.7344 208.781 34.4492L208.031 34.2617C207.375 34.1055 206.664 33.8281 206.672 33.1602C206.676 32.5586 207.215 32.1172 208.121 32.1172C208.984 32.1172 209.554 32.5195 209.629 33.1992ZM216.805 33.1992H218.2C218.172 31.8477 217.02 30.8906 215.317 30.8906C213.637 30.8906 212.376 31.8359 212.379 33.25C212.379 34.3984 213.196 35.0586 214.512 35.3984L215.422 35.6328C216.286 35.8516 216.856 36.1211 216.86 36.7422C216.856 37.4258 216.208 37.8828 215.262 37.8828C214.356 37.8828 213.653 37.4766 213.594 36.6367H212.168C212.227 38.2266 213.411 39.1211 215.274 39.1211C217.192 39.1211 218.305 38.1641 218.309 36.7539C218.305 35.3672 217.161 34.7344 215.958 34.4492L215.208 34.2617C214.551 34.1055 213.84 33.8281 213.848 33.1602C213.852 32.5586 214.391 32.1172 215.297 32.1172C216.161 32.1172 216.731 32.5195 216.805 33.1992Z" fill="#D8D8D8"/>
</svg>
